<svg viewBox="0 0 32 37" fill="none" xmlns="http://www.w3.org/2000/svg">
    <path d="M1.97097e-09 10.2874V7.78757C0.047616 6.88286 0.404736 6.12101 1.07136 5.502C1.73798 4.88299 2.52365 4.57349 3.42835 4.57349H6.8567V3.4307C6.8567 2.47838 7.19002 1.66891 7.85664 1.00229C8.52326 0.335662 9.33274 0.00234985 10.2851 0.00234985H21.7129C22.6652 0.00234985 23.4747 0.335662 24.1413 1.00229C24.8079 1.66891 25.1412 2.47838 25.1412 3.4307V4.57349H28.5696C29.4743 4.57349 30.26 4.88299 30.9266 5.502C31.5932 6.12101 31.9503 6.88286 31.998 7.78757V10.2874C31.998 10.9064 31.7718 11.4421 31.3194 11.8945C30.8671 12.3468 30.3314 12.573 29.7124 12.573V32.0003C29.7124 33.2859 29.2719 34.3692 28.3911 35.2501C27.5102 36.131 26.4269 36.5715 25.1412 36.5714H6.8567C5.57107 36.5714 4.4878 36.131 3.60689 35.2501C2.72599 34.3692 2.28554 33.286 2.28557 32.0003V12.573C1.66656 12.573 1.13087 12.3468 0.67851 11.8945C0.226146 11.4421 -2.4379e-05 10.9064 1.97097e-09 10.2874ZM2.28557 10.2874H29.7124V8.00184C29.7124 7.66853 29.6052 7.39473 29.391 7.18044C29.1767 6.96616 28.9029 6.85902 28.5696 6.85902H3.42832C3.095 6.85902 2.82121 6.96616 2.60692 7.18044C2.39264 7.39473 2.28549 7.66853 2.28549 8.00184V10.2874H2.28557ZM4.57114 32.0003C4.57114 32.6193 4.79731 33.155 5.24965 33.6074C5.70199 34.0597 6.23767 34.2859 6.8567 34.2859H25.1412C25.7603 34.2859 26.2959 34.0597 26.7483 33.6074C27.2007 33.155 27.4268 32.6193 27.4268 32.0003V12.573H4.57114V32.0003ZM6.8567 30.8575V16.0013C6.8567 15.668 6.96385 15.3942 7.17813 15.1799C7.39241 14.9656 7.66621 14.8585 7.99952 14.8585H10.2851C10.6184 14.8585 10.8922 14.9656 11.1065 15.1799C11.3208 15.3942 11.4279 15.668 11.4279 16.0013V30.8575C11.4279 31.1908 11.3208 31.4646 11.1065 31.6789C10.8922 31.8932 10.6184 32.0003 10.2851 32.0003H7.99952C7.66621 32.0003 7.39241 31.8932 7.17813 31.6789C6.96385 31.4646 6.8567 31.1908 6.8567 30.8575ZM7.99949 30.8575H10.2851V16.0013H7.99949V30.8575ZM9.14227 4.57349H22.8557V3.4307C22.8557 3.09739 22.7485 2.82359 22.5343 2.60931C22.32 2.39502 22.0462 2.28788 21.7129 2.28788H10.285C9.95171 2.28788 9.67791 2.39502 9.46362 2.60931C9.24934 2.82359 9.1422 3.09739 9.1422 3.4307V4.57349H9.14227ZM13.7134 30.8575V16.0013C13.7134 15.668 13.8206 15.3942 14.0348 15.1799C14.2491 14.9656 14.5229 14.8585 14.8562 14.8585H17.1418C17.4751 14.8585 17.7489 14.9656 17.9632 15.1799C18.1775 15.3942 18.2846 15.668 18.2846 16.0013V30.8575C18.2846 31.1908 18.1775 31.4646 17.9632 31.6789C17.7489 31.8932 17.4751 32.0003 17.1418 32.0003H14.8562C14.5229 32.0003 14.2491 31.8932 14.0348 31.6789C13.8206 31.4646 13.7134 31.1908 13.7134 30.8575ZM14.8562 30.8575H17.1418V16.0013H14.8562V30.8575ZM20.5701 30.8575V16.0013C20.5701 15.668 20.6773 15.3942 20.8915 15.1799C21.1058 14.9656 21.3796 14.8585 21.7129 14.8585H23.9985C24.3318 14.8585 24.6056 14.9656 24.8199 15.1799C25.0342 15.3942 25.1413 15.668 25.1413 16.0013V30.8575C25.1413 31.1908 25.0342 31.4646 24.8199 31.6789C24.6056 31.8932 24.3318 32.0003 23.9985 32.0003H21.7129C21.3796 32.0003 21.1058 31.8932 20.8915 31.6789C20.6773 31.4646 20.5701 31.1908 20.5701 30.8575ZM21.7129 30.8575H23.9985V16.0013H21.7129V30.8575Z" fill="currentColor"/>
</svg>
